<?xml version="1.0" encoding="utf-8"?>
<!-- Generator: Adobe Illustrator 22.1.0, SVG Export Plug-In . SVG Version: 6.00 Build 0)  -->
<svg version="1.1" id="Layer_1" xmlns="http://www.w3.org/2000/svg" xmlns:xlink="http://www.w3.org/1999/xlink" x="0px" y="0px"
	 viewBox="0 0 64 64" style="enable-background:new 0 0 64 64;" xml:space="preserve">
<style type="text/css">
	.st0{fill:#03C03C;}
	.st1{fill:#FFFFFF;}
	.st2{fill:#E0E1E5;}
	.st3{fill:#B3B4B7;}
	.st4{fill:#FFAF00;}
	.st5{fill:#33D3F4;}
	.st6{fill:#40EEFF;}
</style>
<g>
	<circle class="st0" cx="32" cy="32" r="32"/>
	<g>
		<g>
			<path class="st1" d="M45.6,49.9V22.7l0,0v-11c0-1.1-0.9-1.9-1.9-1.9H11.8c-1.1,0-1.9,0.9-1.9,1.9v38.1c0,2.4,1.9,4.3,4.3,4.3
				h35.7C47.5,54.1,45.6,52.2,45.6,49.9z"/>
		</g>
		<g>
			<path class="st2" d="M49.9,54.2L49.9,54.2c2.4,0,4.3-1.9,4.3-4.3v-25c0-1.2-1-2.1-2.1-2.1h-6.4V50C45.6,52.2,47.5,54.2,49.9,54.2
				z"/>
		</g>
		<g>
			<path class="st3" d="M49.9,24.9c0-1.2,1-2.1,2.1-2.1l0,0h-2.1h-2.1h-2.1v15.7H50L49.9,24.9L49.9,24.9z"/>
		</g>
		<g>
			<rect x="14.1" y="14.1" class="st4" width="27.2" height="7.2"/>
		</g>
		<g>
			<rect x="14.1" y="24.3" class="st5" width="13.6" height="13.6"/>
		</g>
		<g>
			<rect x="30.9" y="26.6" class="st2" width="10.5" height="1.5"/>
			<rect x="30.9" y="29.9" class="st2" width="10.5" height="1.5"/>
			<rect x="30.9" y="33.1" class="st2" width="10.5" height="1.5"/>
			<rect x="30.9" y="36.4" class="st2" width="10.5" height="1.5"/>
		</g>
		<g>
			<rect x="14.1" y="39.6" class="st2" width="27.2" height="1.5"/>
			<rect x="14.1" y="42.9" class="st2" width="27.2" height="1.5"/>
			<rect x="14.1" y="46.1" class="st2" width="27.2" height="1.5"/>
		</g>
		<g>
			<g>
				<path class="st6" d="M20.9,36.9c-3.1,0-5.7-2.5-5.7-5.7s2.6-5.7,5.7-5.7s5.7,2.6,5.7,5.7S24.1,36.9,20.9,36.9z M20.9,26.1
					c-2.8,0-5.1,2.3-5.1,5.1s2.3,5.1,5.1,5.1S26,34,26,31.2S23.7,26.1,20.9,26.1z"/>
			</g>
			<g>
				<g>
					<path class="st6" d="M20.9,28.9c-1.4,0-2.8-0.5-3.8-1.5l0.4-0.5c0.9,0.8,2.1,1.3,3.4,1.3s2.5-0.5,3.4-1.3l0.4,0.5
						C23.7,28.4,22.3,28.9,20.9,28.9z"/>
				</g>
				<g>
					<path class="st6" d="M24.3,35.4c-0.9-0.8-2.1-1.3-3.4-1.3s-2.5,0.5-3.4,1.3L17.1,35c1-0.9,2.4-1.5,3.8-1.5s2.8,0.5,3.8,1.5
						L24.3,35.4z"/>
				</g>
			</g>
			<g>
				<path class="st6" d="M20.9,36.9c-1.6,0-2.9-2.5-2.9-5.7s1.3-5.7,2.9-5.7s2.9,2.5,2.9,5.7S22.6,36.9,20.9,36.9z M20.9,26.1
					c-1.3,0-2.3,2.3-2.3,5.1c0,2.7,1.1,5.1,2.3,5.1s2.3-2.3,2.3-5.1C23.2,28.4,22.2,26.1,20.9,26.1z"/>
			</g>
			<g>
				<rect x="20.6" y="25.7" class="st6" width="0.6" height="10.9"/>
			</g>
			<g>
				<rect x="15.5" y="30.8" class="st6" width="10.9" height="0.6"/>
			</g>
		</g>
	</g>
</g>
</svg>
