<?xml version="1.0" encoding="utf-8"?>
<!-- Generator: Adobe Illustrator 22.1.0, SVG Export Plug-In . SVG Version: 6.00 Build 0)  -->
<svg version="1.1" id="Layer_1" xmlns="http://www.w3.org/2000/svg" xmlns:xlink="http://www.w3.org/1999/xlink" x="0px" y="0px"
	 viewBox="0 0 1000 1000" style="enable-background:new 0 0 1000 1000;" xml:space="preserve">
<style type="text/css">
	.st0{fill:#03C03C;}
	.st1{fill:#EBEBEB;}
	.st2{fill:#FFAF00;}
</style>
<g>
	<circle id="circle4695" class="st0" cx="500.5" cy="500.5" r="500.5"/>
	<path class="st1" d="M764.2,833c-0.2,0.1-0.3,0.3-0.5,0.4l0.3-0.2C764,833.1,764.1,833.1,764.2,833l0.3-0.2
		c0.2-0.2,0.3-0.3,0.5-0.5c-0.2,0.2-0.3,0.3-0.5,0.5L764.2,833z M759.8,836.4v27.9c0,9.8-7.9,17.7-17.7,17.7H252.9
		c-9.8,0-17.7-7.9-17.7-17.7V829c0-9.8,7.9-17.7,17.7-17.7h50.8c7.5-96.8,46.3-188.4,117-274.7c17.9-28.8,13.6-53.5,0-72.9
		c-81.8-138.5-115.8-223.7-118.8-274.2h-49c-9.8,0-17.7-7.9-17.7-17.7v-35.3c0-9.8,7.9-17.7,17.7-17.7h489.3
		c9.8,0,17.7,7.9,17.7,17.7v35.3c0,9.8-7.9,17.7-17.7,17.7h-52.6c-2.8,50.4-36.9,135.7-118.8,274.5c-13.6,19.4-17.9,44.1,0,72.9
		c70.6,86.2,109.4,177.7,116.9,274.4h54.5c9.8,0,17.7,7.9,17.7,17.7v4.5l5.9-1.9l-0.2,0.2l-0.3,0.2c0.1-0.1,0.2-0.2,0.3-0.2l0.2-0.2
		l-5.9,2.4V836.4c0.4-0.3,0.8-0.5,1.1-0.8c0.7-0.6,1.5-1.1,2.2-1.7l-0.3,0.2c-0.6,0.5-1.3,1-1.9,1.5
		C760.6,835.9,760.2,836.2,759.8,836.4z"/>
	<path class="st2" d="M493.1,474.2c-60.8-53.5-87.2-99.7-98.5-142.7l200.7,2.5C574.8,390.7,542.4,438.6,493.1,474.2z"/>
	<path class="st2" d="M492.3,599.5c-89.1,78.5-128,146.3-144.6,209.4l294.4-3.7C612.2,722,564.5,651.8,492.3,599.5z"/>
</g>
</svg>
