<?xml version="1.0" encoding="utf-8"?>
<!-- Generator: Adobe Illustrator 22.1.0, SVG Export Plug-In . SVG Version: 6.00 Build 0)  -->
<svg version="1.1" id="Layer_1" xmlns="http://www.w3.org/2000/svg" xmlns:xlink="http://www.w3.org/1999/xlink" x="0px" y="0px"
	 viewBox="0 0 64 64" style="enable-background:new 0 0 64 64;" xml:space="preserve">
<style type="text/css">
	.st0{fill:#03C03C;}
	.st1{fill:#FFFFFF;}
	.st2{fill:#CACBCE;}
	.st3{fill:#FACC20;}
	.st4{fill:#FDEF34;}
	.st5{fill:#F7A90B;}
	.st6{fill:#F3EEE4;}
</style>
<g>
	<circle class="st0" cx="32" cy="32" r="32"/>
	<g>
		<path class="st1" d="M54.3,43c-0.6-1.4-2.2-2-3.6-1.6L39,45l0,0c0-0.1,0-0.2,0-0.3c0-1.3-1-2.4-2.2-2.5l-23.6-2.3V50l15.5,5.5
			c0.8,0.3,1.7,0.5,2.6,0.5c1.1,0,2.2-0.2,3.3-0.7l18.3-8.2C54.4,46.4,55,44.6,54.3,43z"/>
		<path class="st2" d="M39,44.7c0,0,0,0.2,0,0.6c-0.1,0.2-0.1,0.4-0.2,0.6c-0.1,0.1-0.1,0.2-0.2,0.4c-0.1,0.1-0.2,0.2-0.3,0.4
			c-0.1,0.1-0.3,0.2-0.4,0.3c-0.1,0.1-0.3,0.2-0.5,0.3s-0.4,0.1-0.5,0.2c-0.2,0-0.4,0-0.6,0c-0.8,0-1.6-0.1-2.4-0.1
			c-0.8-0.1-1.6-0.1-2.4-0.2c-0.8-0.1-1.5-0.1-2.1-0.2c-1.2-0.1-2-0.2-2-0.2s0.8,0,2,0c0.6,0,1.3,0,2.1,0.1c0.8,0,1.6,0.1,2.4,0.1
			c0.8,0.1,1.6,0.1,2.4,0.2c0.2,0,0.4,0,0.5,0c0.2,0,0.3-0.1,0.5-0.1c0.1-0.1,0.3-0.1,0.4-0.2c0.1-0.1,0.3-0.2,0.4-0.3
			c0.1-0.1,0.2-0.2,0.3-0.3s0.1-0.2,0.2-0.3c0.1-0.2,0.2-0.4,0.3-0.6C39,44.9,39,44.7,39,44.7z"/>
		<g>
			<circle class="st3" cx="34.4" cy="30.2" r="9.7"/>
			<circle class="st4" cx="34.4" cy="30.2" r="6.5"/>
			<path class="st5" d="M37.2,31c-0.1-0.3-0.5-1.2-2.4-1.6V27c0.5,0.2,0.8,0.5,0.9,0.9c0.1,0.4,0.4,0.6,0.7,0.6
				c0.2,0,1.4-0.3,0.2-1.9c-0.2-0.3-0.6-0.7-1.8-0.8V25h-0.7v0.9c-2.2,0.2-2.4,1.7-2.4,2.3c0,1.9,1.9,2.3,2.4,2.4v2.6
				C33.2,33,33,32,32.9,31.7c-0.2-0.4-0.5-0.5-0.7-0.5c-0.6,0-0.7,0.5-0.7,0.7s0.1,1.4,1.5,2.1c0.3,0.2,0.7,0.3,1.2,0.3v0.9h0.7
				v-0.9c0.5,0,1-0.2,1.4-0.4C37.3,33.4,37.6,32.2,37.2,31z M34.1,29.2c-0.6-0.3-1-0.4-1-1.1c0-0.3,0.1-0.8,1-1.1V29.2z M34.8,33.4
				v-2.5c1.2,0.4,1.2,0.9,1.2,1.2C36,32.4,35.9,33.1,34.8,33.4z"/>
		</g>
		<g>
			<circle class="st3" cx="47.4" cy="14.5" r="6.5"/>
			<circle class="st4" cx="47.4" cy="14.5" r="4.4"/>
			<path class="st5" d="M49.3,15.1c-0.1-0.2-0.3-0.8-1.6-1.1v-1.6c0.3,0.1,0.5,0.3,0.6,0.6s0.2,0.4,0.5,0.4c0.1,0,0.9-0.2,0.1-1.3
				c-0.1-0.2-0.4-0.5-1.2-0.5V11h-0.5v0.6c-1.5,0.2-1.6,1.1-1.6,1.6c0,1.3,1.3,1.5,1.6,1.6v1.8c-0.6-0.1-0.8-0.8-0.8-1
				c-0.1-0.3-0.3-0.3-0.5-0.3c-0.4,0-0.5,0.4-0.5,0.5c0,0.2,0.1,0.9,1,1.4c0.2,0.1,0.5,0.2,0.8,0.2V18h0.5v-0.6
				c0.4,0,0.7-0.1,0.9-0.3C49.3,16.7,49.6,15.9,49.3,15.1z M47.2,13.9c-0.4-0.2-0.7-0.2-0.7-0.7c0-0.2,0.1-0.6,0.7-0.7V13.9z
				 M47.7,16.7V15c0.8,0.3,0.8,0.6,0.8,0.8S48.4,16.5,47.7,16.7z"/>
		</g>
		<g>
			<circle class="st3" cx="21.1" cy="16.7" r="7.5"/>
			<circle class="st4" cx="21.1" cy="16.7" r="5"/>
			<path class="st5" d="M23.3,17.3c-0.1-0.2-0.4-0.9-1.9-1.2v-1.8c0.4,0.1,0.6,0.4,0.7,0.7s0.3,0.5,0.6,0.5c0.2,0,1.1-0.3,0.1-1.4
				c-0.2-0.2-0.4-0.5-1.4-0.6v-0.7h-0.6v0.7c-1.7,0.2-1.9,1.3-1.9,1.8c0,1.5,1.5,1.8,1.9,1.9v2c-0.7-0.2-0.9-0.9-0.9-1.1
				c-0.1-0.3-0.4-0.4-0.5-0.4c-0.4,0-0.6,0.4-0.6,0.6s0.1,1.1,1.1,1.6c0.3,0.1,0.6,0.2,0.9,0.2v0.7h0.6V20c0.4,0,0.8-0.1,1.1-0.3
				C23.3,19.2,23.6,18.2,23.3,17.3z M20.8,15.9c-0.4-0.2-0.8-0.3-0.8-0.8c0-0.2,0.1-0.7,0.8-0.8V15.9z M21.4,19.1v-1.9
				c0.9,0.3,0.9,0.7,0.9,0.9C22.3,18.4,22.3,18.9,21.4,19.1z"/>
		</g>
		<path class="st6" d="M36.3,43.1l-2-0.2L34,46l2,0.2c0.9,0.1,1.7-0.5,1.8-1.4C37.9,44,37.2,43.2,36.3,43.1z"/>
		<rect x="11.6" y="37.9" class="st2" width="5" height="14.6"/>
	</g>
</g>
</svg>
