<?xml version="1.0" encoding="utf-8"?>
<!-- Generator: Adobe Illustrator 22.1.0, SVG Export Plug-In . SVG Version: 6.00 Build 0)  -->
<svg version="1.1" id="Layer_1" xmlns="http://www.w3.org/2000/svg" xmlns:xlink="http://www.w3.org/1999/xlink" x="0px" y="0px"
	 viewBox="0 0 128 128" style="enable-background:new 0 0 128 128;" xml:space="preserve">
<style type="text/css">
	.st0{fill:#03C03C;}
	.st1{fill:none;stroke:#007BC6;stroke-width:2.2439;stroke-miterlimit:10;}
	.st2{fill:#0B90D3;}
	.st3{fill:#007BC6;}
	.st4{fill:#0CAFE8;}
	.st5{fill:#FFFFFF;}
	.st6{opacity:0.2;fill:#382673;enable-background:new    ;}
	.st7{fill:#FFDE39;}
	.st8{fill:#FEC632;}
	.st9{fill:none;stroke:#F15A9E;stroke-width:3;stroke-linecap:round;stroke-miterlimit:10;}
	.st10{fill:#D44A90;}
	
		.st11{opacity:0.2;fill:none;stroke:#382673;stroke-width:2;stroke-linecap:round;stroke-linejoin:round;stroke-miterlimit:10;enable-background:new    ;}
	.st12{fill:none;stroke:#F15A9E;stroke-width:2;stroke-linecap:round;stroke-miterlimit:10;}
</style>
<circle class="st0" cx="64" cy="64" r="60"/>
<g>
	<ellipse class="st1" cx="48.7" cy="25.9" rx="11.5" ry="11.5"/>
	<rect x="48.4" y="27.7" transform="matrix(0.9397 -0.342 0.342 0.9397 -9.2233 20.1059)" class="st2" width="8" height="17"/>
	<rect x="55.2" y="26.5" transform="matrix(0.9397 -0.342 0.342 0.9397 -8.6128 21.1614)" class="st3" width="1" height="17"/>
	<rect x="46.7" y="28" transform="matrix(0.9397 -0.342 0.342 0.9397 -7.7173 19.2405)" class="st3" width="8" height="7"/>
	<rect x="75.3" y="37.5" transform="matrix(0.4226 -0.9063 0.9063 0.4226 10.7273 97.7525)" class="st2" width="13.5" height="6"/>
	<path class="st4" d="M88,38.1l-8-3.7l0.7-1.4c0.5-1,1.7-1.4,2.7-1l4.4,2c1,0.5,1.4,1.7,1,2.7L88,38.1z"/>
	<rect x="29.4" y="51.7" transform="matrix(0.4226 -0.9063 0.9063 0.4226 -34.2592 63.0859)" class="st2" width="6" height="13.5"/>
	<path class="st4" d="M26.4,60.5l3.7-8l-1.4-0.7c-1-0.5-2.2,0-2.7,1l-2,4.4c-0.5,1,0,2.2,1,2.7L26.4,60.5z"/>
	<ellipse class="st4" cx="66.3" cy="74.2" rx="38" ry="38"/>
	<path class="st2" d="M91.5,45.8c3.8,3.8,6.9,8.5,8.8,13.9c7.2,19.7-3,41.5-22.7,48.7c-13.6,4.9-28.1,1.7-38.2-7.3
		c10.1,10.1,25.5,14,39.9,8.8c19.7-7.2,29.9-29,22.7-48.7C99.7,55.1,96.1,49.9,91.5,45.8z"/>
	<ellipse class="st5" cx="66.3" cy="74.2" rx="30" ry="30"/>
	<path class="st6" d="M39.7,86C34,70.5,42.1,53.3,57.6,47.6c10.6-3.9,22.1-1.3,30,5.6c-8-8.1-20.3-11.3-31.7-7.2
		C40.3,51.7,32.3,68.9,38,84.5c1.8,4.9,4.7,9.1,8.4,12.3C43.6,93.8,41.2,90.2,39.7,86z"/>
	<ellipse class="st6" cx="66.3" cy="74.2" rx="8" ry="8"/>
	<path class="st7" d="M57.4,49.8l3.1,8.5c8.8-3.2,18.6,1.3,21.8,10.2l8.5-3.1C85.8,51.9,70.9,44.9,57.4,49.8z"/>
	<path class="st8" d="M57.4,49.8l3.1,8.5c4.4-1.6,9.1-1.3,13,0.6l3.8-8.2C71.2,47.9,64.1,47.4,57.4,49.8z"/>
	<line class="st9" x1="58.8" y1="77" x2="90.7" y2="65.4"/>
	<ellipse class="st10" cx="66.3" cy="74.2" rx="4" ry="4"/>
	<path class="st4" d="M56.9,30.8L45.6,35l-2.4-6.6c-0.6-1.6,0.2-3.3,1.8-3.8l5.6-2.1c1.6-0.6,3.3,0.2,3.8,1.8L56.9,30.8z"/>
	<path class="st2" d="M50.6,22.5l-2.8,1c1.6-0.6,3.3,0.2,3.8,1.8l2.4,6.6l2.8-1l-2.4-6.6C53.9,22.7,52.2,21.9,50.6,22.5z"/>
	<line class="st11" x1="74.5" y1="96.8" x2="72.8" y2="92.1"/>
	<line class="st11" x1="56.1" y1="96" x2="58.2" y2="91.5"/>
	<line class="st11" x1="43.7" y1="82.5" x2="48.4" y2="80.7"/>
	<line class="st11" x1="83.5" y1="82.3" x2="88" y2="84.4"/>
	<line class="st11" x1="44.5" y1="64.1" x2="49.1" y2="66.2"/>
</g>
<line class="st12" x1="87.7" y1="29" x2="89.8" y2="24.5"/>
<line class="st12" x1="82.9" y1="26.8" x2="84.1" y2="24.2"/>
<line class="st12" x1="92.5" y1="31.3" x2="93.7" y2="28.7"/>
</svg>
